<?xml version="1.0" encoding="utf-8"?>
<!-- Generator: Adobe Illustrator 18.1.0, SVG Export Plug-In . SVG Version: 6.00 Build 0)  -->
<!DOCTYPE svg PUBLIC "-//W3C//DTD SVG 1.1//EN" "http://www.w3.org/Graphics/SVG/1.1/DTD/svg11.dtd">
<svg version="1.1" id="Layer_1" xmlns="http://www.w3.org/2000/svg" xmlns:xlink="http://www.w3.org/1999/xlink" x="0px" y="0px"
	 viewBox="0 0 106 106" enable-background="new 0 0 106 106" xml:space="preserve">
<g>
	<path fill="#C13333" d="M106,53c0,0.4,0,0.9,0,1.3c-0.1,3.6-0.5,7.2-1.3,10.6c-4.5,19.7-20,35.2-39.7,39.7
		c-3.4,0.8-6.9,1.2-10.6,1.3c-0.5,0-0.9,0-1.4,0C23.7,106,0,82.3,0,53C0,23.7,23.7,0,53,0S106,23.7,106,53z"/>
	<path fill="#A82D2D" d="M106,54.3c-0.1,3.6-0.5,7.2-1.3,10.6c-4.5,19.7-20,35.2-39.7,39.7c-3.4,0.8-6.9,1.2-10.6,1.3L27.3,78.9
		l51.6-51.6L106,54.3z"/>
	<g>
		<path fill="#F2F2F2" d="M32.1,81c-1.7,0-3.3-0.6-4.6-1.9c-2.5-2.5-2.5-6.7,0-9.2L70,27.5c2.5-2.5,6.7-2.5,9.2,0
			c2.5,2.5,2.5,6.7,0,9.2L36.7,79.1C35.5,80.4,33.8,81,32.1,81z"/>
		<path fill="#F2F2F2" d="M73.9,81c-1.7,0-3.3-0.6-4.6-1.9L26.8,36.7c-2.5-2.5-2.5-6.7,0-9.2c2.5-2.5,6.7-2.5,9.2,0L78.5,70
			c2.5,2.5,2.5,6.7,0,9.2C77.2,80.4,75.5,81,73.9,81z"/>
	</g>
</g>
</svg>
