<?xml version="1.0" encoding="utf-8"?>
<!-- Generator: Adobe Illustrator 18.1.0, SVG Export Plug-In . SVG Version: 6.00 Build 0)  -->
<!DOCTYPE svg PUBLIC "-//W3C//DTD SVG 1.1//EN" "http://www.w3.org/Graphics/SVG/1.1/DTD/svg11.dtd">
<svg version="1.1" id="Layer_1" xmlns="http://www.w3.org/2000/svg" xmlns:xlink="http://www.w3.org/1999/xlink" x="0px" y="0px"
	 viewBox="0 0 50 40" enable-background="new 0 0 50 40" xml:space="preserve">
<g id="hamburger">
	<path fill="#808285" d="M47,6H3C1.3,6,0,4.7,0,3s1.3-3,3-3h44c1.7,0,3,1.3,3,3S48.7,6,47,6z"/>
	<path fill="#808285" d="M47,23H3c-1.7,0-3-1.3-3-3s1.3-3,3-3h44c1.7,0,3,1.3,3,3S48.7,23,47,23z"/>
	<path fill="#808285" d="M47,40H3c-1.7,0-3-1.3-3-3s1.3-3,3-3h44c1.7,0,3,1.3,3,3S48.7,40,47,40z"/>
</g>
</svg>
