<?xml version="1.0" encoding="utf-8"?>
<!-- Generator: Adobe Illustrator 18.1.0, SVG Export Plug-In . SVG Version: 6.00 Build 0)  -->
<!DOCTYPE svg PUBLIC "-//W3C//DTD SVG 1.1//EN" "http://www.w3.org/Graphics/SVG/1.1/DTD/svg11.dtd">
<svg version="1.1" id="Layer_1" xmlns="http://www.w3.org/2000/svg" xmlns:xlink="http://www.w3.org/1999/xlink" x="0px" y="0px"
	 viewBox="0 0 387 124" enable-background="new 0 0 387 124" xml:space="preserve">
<g>
	<path fill="#38A4DD" d="M387,28.8v66c0,2.2-0.1,4.4-0.5,6.4c-2.9,12.9-14.3,22.8-28.1,22.8H28.7C12.8,124,0,110.8,0,94.8v-66
		C0,12.9,12.8,0,28.7,0h329.6C374.3,0,387,12.9,387,28.8z"/>
	
		<text transform="matrix(1 0 0 1 40.7476 89.0603)" fill="#F3F3F3" font-family="'abc123-Regular'" font-size="76.8831" letter-spacing="3">Start</text>
	<path fill="#0AA0D7" d="M386.6,101.2c-2.9,12.9-14.5,22.8-28.3,22.8h-29.4l-48.5-48.6l-2.5-30.5l14-10.6l28.7,1L386.6,101.2z"/>
	<g>
		<g>
			<path fill="#F3F3F3" d="M337.8,101.1c-1.1,0-2-0.4-2.6-1c-1.5-1.5-14.4-15.8-15.5-17c-0.1-0.2-0.3-0.3-0.4-0.5
				c-0.3-0.4-0.3-1-0.1-1.5c0.2-0.5,0.6-0.8,1.1-0.9c0.4-0.1,1.4-0.5,3-2.1c1.8-1.8,2-2.7,2.1-3.1c0.1-0.5,0.4-1,0.9-1.2
				c0.2-0.1,0.5-0.2,0.7-0.2c0.3,0,0.5,0.1,0.8,0.2c0.2,0.1,0.5,0.3,0.7,0.5c1.2,1,15.5,14,17,15.4c2.3,2.3,0.2,6.4-1.7,8.4
				C342.5,99.7,340,101.1,337.8,101.1L337.8,101.1z"/>
			<path display="none" fill="#F3F3F3" d="M327.1,75.3c0.1,0.1,0.2,0.1,0.4,0.3c1.1,0.9,15.4,13.9,16.9,15.4
				c1.5,1.5-0.3,4.7-1.7,6.3c-1.1,1.1-3.2,2.4-4.8,2.4c-0.6,0-1.1-0.2-1.5-0.6c-1.5-1.5-14.4-15.8-15.4-16.9
				c-0.1-0.1-0.1-0.2-0.2-0.3c0.9-0.2,2.1-0.8,3.9-2.5C326.4,77.5,327,76.2,327.1,75.3 M327.1,72.2c-0.5,0-1,0.1-1.4,0.3
				c-0.9,0.5-1.6,1.4-1.7,2.4c0,0.1-0.2,0.8-1.6,2.2c-1.5,1.5-2.2,1.7-2.2,1.7c-1,0.2-1.9,0.9-2.3,1.8c-0.4,0.9-0.4,2,0.2,2.9
				c0.1,0.2,0.3,0.5,0.5,0.7c1,1.2,14,15.5,15.5,17.1c1,1,2.3,1.5,3.7,1.5c2.6,0,5.6-1.7,7.1-3.4c2.3-2.4,4.7-7.5,1.6-10.6
				c-1.5-1.5-15.6-14.3-17-15.5c-0.3-0.2-0.6-0.5-0.9-0.6C328.1,72.3,327.6,72.2,327.1,72.2L327.1,72.2z"/>
		</g>
		<g>
			<path fill="#F3F3F3" d="M301.5,84.6c-7.6,0-14.7-3-20.1-8.3c-11.1-11.1-11.1-29.1,0-40.1c5.4-5.4,12.5-8.3,20.1-8.3
				s14.7,3,20.1,8.3c9,9,10.9,22.7,4.8,33.7c0.4,0.8,0.7,2.1,0.2,3.7c-0.4,1.5-1.5,3.1-3.1,4.7c-1.6,1.6-3.2,2.7-4.7,3.1
				c-0.6,0.2-1.1,0.3-1.7,0.3c-0.9,0-1.6-0.2-2.1-0.5C310.8,83.4,306.2,84.6,301.5,84.6z M301.5,35c-5.7,0-11,2.2-15,6.2
				c-8.3,8.3-8.3,21.7,0,30c4,4,9.3,6.2,15,6.2c5.7,0,11-2.2,15-6.2c4-4,6.2-9.3,6.2-15c0-5.7-2.2-11-6.2-15
				C312.5,37.2,307.2,35,301.5,35z"/>
			<path display="none" fill="#F3F3F3" d="M301.5,29.4c6.9,0,13.7,2.6,19,7.9c8.9,8.9,10.2,22.4,4.1,32.7c0.4,0.4,1.1,1.5,0.6,3.2
				c-0.3,1.1-1.1,2.4-2.7,4.1c-1.6,1.6-3,2.4-4.1,2.8c-0.5,0.1-0.9,0.2-1.2,0.2c-1.1,0-1.8-0.5-2.1-0.8c-4.2,2.4-8.8,3.6-13.5,3.6
				c-6.9,0-13.7-2.6-19-7.9c-10.5-10.5-10.5-27.4,0-37.9C287.8,32,294.7,29.4,301.5,29.4 M301.5,78.9c5.8,0,11.7-2.2,16.1-6.7
				c8.9-8.9,8.9-23.3,0-32.2c-4.4-4.4-10.3-6.7-16.1-6.7s-11.7,2.2-16.1,6.7c-8.9,8.9-8.9,23.3,0,32.2
				C289.9,76.7,295.7,78.9,301.5,78.9 M301.5,26.2c-8,0-15.5,3.1-21.2,8.8c-11.7,11.7-11.7,30.7,0,42.3c5.7,5.7,13.2,8.8,21.2,8.8
				c4.7,0,9.3-1.1,13.5-3.2c0.6,0.2,1.3,0.3,2.1,0.3c0.7,0,1.4-0.1,2.1-0.3c1.8-0.5,3.5-1.7,5.4-3.5c1.9-1.9,3-3.6,3.5-5.4
				c0.4-1.4,0.4-2.8,0-4.1c6-11.5,3.8-25.6-5.4-34.9C317,29.4,309.5,26.2,301.5,26.2L301.5,26.2z M301.5,75.8
				c-5.2,0-10.2-2-13.9-5.7c-7.6-7.7-7.6-20.1,0-27.8c3.7-3.7,8.6-5.7,13.9-5.7c5.2,0,10.2,2,13.9,5.7c3.7,3.7,5.7,8.6,5.7,13.9
				c0,5.2-2,10.2-5.7,13.9C311.7,73.8,306.8,75.8,301.5,75.8L301.5,75.8z"/>
		</g>
	</g>
</g>
</svg>
