<?xml version="1.0" encoding="utf-8"?>
<!-- Generator: Adobe Illustrator 18.1.0, SVG Export Plug-In . SVG Version: 6.00 Build 0)  -->
<!DOCTYPE svg PUBLIC "-//W3C//DTD SVG 1.1//EN" "http://www.w3.org/Graphics/SVG/1.1/DTD/svg11.dtd">
<svg version="1.1" id="Layer_1" xmlns="http://www.w3.org/2000/svg" xmlns:xlink="http://www.w3.org/1999/xlink" x="0px" y="0px"
	 viewBox="0 0 106 106" enable-background="new 0 0 106 106" xml:space="preserve">
<g>
	<path fill="#4CAF50" d="M106,53c0,0.2,0,0.4,0,0.7c0,3.9-0.5,7.6-1.3,11.3c-4.5,19.6-19.9,35.1-39.5,39.7c0,0-0.1,0-0.2,0
		c-3.8,0.9-7.8,1.4-11.9,1.4C23.7,106,0,82.3,0,53C0,23.7,23.7,0,53,0S106,23.7,106,53z"/>
	<path fill="#52A052" d="M106,53.7c0,3.9-0.5,7.6-1.3,11.3c-4.5,19.6-19.9,35.1-39.5,39.7L39.2,78.7l45.9-45.9L106,53.7z"/>
	<g>
		<path fill="#F2F2F2" d="M44.4,80.6c-2.1,0-4.1-0.8-5.6-2.3L22.1,61.6c-2.5-2.5-2.5-6.7,0-9.2c2.5-2.5,6.7-2.5,9.2,0l13.1,13.1
			l32.1-32.1c2.5-2.5,6.7-2.5,9.2,0s2.5,6.7,0,9.2L49.9,78.3C48.4,79.8,46.5,80.6,44.4,80.6z"/>
	</g>
</g>
</svg>
